Coordinates
version=1
nRows=19
nColumns=33
inDegrees=yes

Units are S.I. units (second, meters, Newtons, ...)
Angles are in degrees.

endheader
time	ground_thorax_rot_x	ground_thorax_rot_y	ground_thorax_rot_z	ground_thorax_tx	ground_thorax_ty	ground_thorax_tz	clav_prot_r	clav_elev_r	scapula_abduction_r	scapula_elevation_r	scapula_upward_rot_r	scapula_winging_r	shoulder_elv_r	plane_of_elev_r	axial_rot_r	elbow_flexion_r	pro_sup_r	wrist_flex_r	wrist_dev_r	clav_prot_l	clav_elev_l	scapula_abduction_l	scapula_elevation_l	scapula_upward_rot_l	scapula_winging_l	shoulder_elv_l	plane_of_elev_l	axial_rot_l	elbow_flexion_l	pro_sup_l	wrist_flex_l	wrist_dev_l
     11.84000000	     31.18545463	     27.02206062	     34.06625711	    -77.36890616	    802.31357376	    -33.90143251	     12.49889565	     34.84862846	     25.17964059	     45.00000000	    -45.00000000	  -3326.45988867	  -1907.22678552	    159.48943717	     23.32287511	   2160.26413166	   -193.57614521	     13.08157943	     14.84527721	     -8.89103194	    -45.00000000	    -38.23687235	     45.00000000	    -45.00000000	  -3855.96387446	  -1348.89034052	     17.21757904	   -179.99999979	    372.61548729	    201.22640066	     12.07581335	    -13.49357592
     11.85000000	     31.27550237	     26.84922056	     33.89747570	    -79.42550520	    804.11496432	    -34.13769260	     12.43617271	     34.97423612	     25.25889357	     45.00000000	    -45.00000000	  -3326.69798842	  -1907.21511422	    159.45985908	     23.26143905	   2160.25342041	   -193.84758035	     13.14815014	     14.85099861	     -8.88243464	    -45.00000000	    -38.26759417	     45.00000000	    -45.00000000	  -3855.86053940	  -1348.75480967	     17.20653708	   -179.99999979	    372.48871222	    201.11290011	     12.13422464	    -13.58339799
     11.86000000	     31.31212722	     26.71080602	     33.74693943	    -81.42096657	    805.93868445	    -34.38503170	     12.52551719	     34.75886254	     25.17337276	     45.00000000	    -45.00000000	  -3326.75877603	  -1907.10157231	    159.48850162	     23.42618351	   2160.17922448	   -194.18094781	     13.17769571	     14.87226613	     -8.65588571	    -45.00000000	    -38.47472777	     45.00000000	    -45.00000000	  -3855.71046479	  -1348.70951912	     17.29528480	   -179.99999979	    372.62424976	    200.96782028	     12.22532175	    -13.55509220
     11.87000000	     31.37484534	     26.55877669	     33.58927752	    -83.35086015	    807.78258021	    -34.64219704	     12.51726524	     34.77016050	     25.18013686	     45.00000000	    -45.00000000	  -3326.90254591	  -1907.05497858	    159.48684820	     23.37871580	   2160.14562777	   -194.54922704	     13.21004038	     14.88820690	     -8.61685121	    -45.00000000	    -38.54923121	     45.00000000	    -45.00000000	  -3855.62319787	  -1348.59498287	     17.30021861	   -179.99999979	    372.61278387	    200.77395812	     12.28939519	    -13.58276917
     11.88000000	     31.45066647	     26.37367388	     33.42863551	    -85.21517562	    809.64494672	    -34.90781177	     12.51521442	     34.81588649	     25.24734905	     45.00000000	    -45.00000000	  -3327.09917187	  -1907.03764313	    159.43684982	     23.34630156	   2160.11751162	   -194.93654050	     13.25091843	     14.90092502	     -8.58606529	    -45.00000000	    -38.65981464	     45.00000000	    -45.00000000	  -3855.50989546	  -1348.47979366	     17.29196765	   -179.99999979	    372.60357777	    200.54150546	     12.37007452	    -13.61800604
     11.89000000	     31.50630587	     26.21600738	     33.25258183	    -87.01134783	    811.52546687	    -35.18047672	     12.48432662	     34.81766330	     25.27216755	     45.00000000	    -45.00000000	  -3327.24840815	  -1907.04582076	    159.40890760	     23.29994098	   2160.12077149	   -195.34852072	     13.26708155	     14.92236315	     -8.44812505	    -45.00000000	    -38.76756151	     45.00000000	    -45.00000000	  -3855.41076413	  -1348.41599525	     17.32579561	   -179.99999979	    372.62636521	    200.27886548	     12.46600066	    -13.64193349
     11.90000000	     31.57415289	     26.05084366	     33.09611280	    -88.74254171	    813.42607543	    -35.45943089	     12.57045503	     34.72027983	     25.24668159	     45.00000000	    -45.00000000	  -3327.39113034	  -1906.94614151	    159.35686420	     23.32892260	   2160.00958363	   -195.82193038	     13.29581843	     14.93965513	     -8.39431769	    -45.00000000	    -38.83860133	     45.00000000	    -45.00000000	  -3855.29093758	  -1348.33165056	     17.39183751	   -179.99999979	    372.62937930	    199.97570990	     12.53662344	    -13.64878866
     11.91000000	     31.64679648	     25.86643572	     32.88478632	    -90.40414545	    815.34159407	    -35.74321148	     12.52541860	     34.76023467	     25.35699340	     45.00000000	    -45.00000000	  -3327.60355000	  -1907.01819388	    159.34731238	     23.22635653	   2159.96290002	   -196.32448786	     13.31577721	     14.98040277	     -8.33837657	    -45.00000000	    -38.93318562	     45.00000000	    -45.00000000	  -3855.21776187	  -1348.25134252	     17.43128736	   -179.99999979	    372.62023910	    199.65391113	     12.64585313	    -13.69231132
     11.92000000	     31.69947201	     25.69297445	     32.76240594	    -92.00130517	    817.27341943	    -36.03194132	     12.61471760	     34.64424866	     25.34096956	     45.00000000	    -45.00000000	  -3327.64617414	  -1906.87719150	    159.33173176	     23.23164412	   2159.88280538	   -196.90339918	     13.31019980	     14.98939431	     -8.23538310	    -45.00000000	    -39.07196739	     45.00000000	    -45.00000000	  -3855.08419798	  -1348.15913476	     17.44888505	   -179.99999979	    372.67001443	    199.31373512	     12.70978826	    -13.68306116
     11.93000000	     31.75519513	     25.56631200	     32.58785584	    -93.53300778	    819.21637147	    -36.32524442	     12.54017104	     34.67766368	     25.39604033	     45.00000000	    -45.00000000	  -3327.81006538	  -1906.93475754	    159.33099788	     23.10482714	   2159.90062244	   -197.48431288	     13.29515854	     15.02383599	     -8.10784786	    -45.00000000	    -39.18497658	     45.00000000	    -45.00000000	  -3855.03142939	  -1348.08956197	     17.49727720	   -179.99999979	    372.66966764	    198.96833996	     12.80310465	    -13.71939646
     11.94000000	     31.83860745	     25.35991969	     32.42008811	    -95.00144368	    821.16703678	    -36.62340714	     12.59819856	     34.61961320	     25.50771521	     45.00000000	    -45.00000000	  -3327.92863673	  -1906.88099553	    159.35413776	     23.01843149	   2159.80725421	   -198.10086564	     13.31318153	     15.03913580	     -8.07345693	    -45.00000000	    -39.23536179	     45.00000000	    -45.00000000	  -3854.92178512	  -1347.99278896	     17.54284767	   -179.99999979	    372.68073698	    198.62399811	     12.89819303	    -13.75210407
     11.95000000	     31.81428934	     25.29859920	     32.34687110	    -96.40788124	    823.12099469	    -36.92672564	     12.60442856	     34.46092655	     25.26115639	     45.00000000	    -45.00000000	  -3327.94497454	  -1906.68512282	    159.25484993	     22.99067384	   2159.73315191	   -198.80481346	     13.26927859	     15.06276982	     -7.76499116	    -45.00000000	    -39.45144877	     45.00000000	    -45.00000000	  -3854.77131409	  -1347.89754620	     17.60631934	   -179.99999979	    372.71476069	    198.23289092	     12.90794396	    -13.71154643
     11.96000000	     31.92990631	     25.03650941	     32.13973241	    -97.75259311	    825.07276518	    -37.23527184	     12.63076744	     34.57747081	     25.50541641	     45.00000000	    -45.00000000	  -3328.14058536	  -1906.80166688	    159.23923816	     22.83671817	   2159.71795943	   -199.46882029	     13.28812567	     15.06393410	     -7.92508828	    -45.00000000	    -39.48963332	     45.00000000	    -45.00000000	  -3854.79263433	  -1347.81686080	     17.55744081	   -179.99999979	    372.70808603	    197.87726061	     13.03174137	    -13.79676804
     11.97000000	     31.99494909	     24.88473894	     31.98436815	    -99.03421444	    827.01575428	    -37.54851207	     12.59720194	     34.51176845	     25.56053957	     45.00000000	    -45.00000000	  -3328.23976863	  -1906.79811183	    159.26850134	     22.67611964	   2159.66784213	   -200.12860362	     13.28553965	     15.09186961	     -7.73109745	    -45.00000000	    -39.58730767	     45.00000000	    -45.00000000	  -3854.68300073	  -1347.74599622	     17.63507866	   -179.99999979	    372.68944010	    197.52785183	     13.11116988	    -13.84301921
     11.98000000	     32.02853970	     24.78229572	     31.85952798	   -100.25184159	    828.94447100	    -37.86562262	     12.63173163	     34.43021175	     25.44812952	     45.00000000	    -45.00000000	  -3328.29297860	  -1906.66782894	    159.19158683	     22.57280803	   2159.60602485	   -200.82661220	     13.25863260	     15.10688084	     -7.59854985	    -45.00000000	    -39.72121318	     45.00000000	    -45.00000000	  -3854.58781840	  -1347.67989437	     17.69076684	   -179.99999979	    372.62847939	    197.14494374	     13.14110519	    -13.87542144
     11.99000000	     32.11145196	     24.57418801	     31.68527869	   -101.40469065	    830.85387181	    -38.18547817	     12.64705049	     34.46367670	     25.62514623	     45.00000000	    -45.00000000	  -3328.47295136	  -1906.75238114	    159.18893596	     22.40736074	   2159.51210925	   -201.51457344	     13.28188662	     15.12256230	     -7.63493145	    -45.00000000	    -39.77814483	     45.00000000	    -45.00000000	  -3854.57512869	  -1347.56512917	     17.69911580	   -179.99999979	    372.59818277	    196.77094921	     13.22674852	    -13.95715748
     12.00000000	     32.13434857	     24.47754704	     31.58780253	   -102.49288519	    832.73765808	    -38.50627206	     12.61277517	     34.35437028	     25.48805261	     45.00000000	    -45.00000000	  -3328.46897066	  -1906.63804698	    159.11875663	     22.28378733	   2159.45396975	   -202.22992820	     13.24389133	     15.13845040	     -7.31179620	    -45.00000000	    -39.95379746	     45.00000000	    -45.00000000	  -3854.42949471	  -1347.53780944	     17.78702305	   -179.99999979	    372.58263547	    196.38086168	     13.26363728	    -13.98040727
     12.01000000	     32.24843784	     24.25755200	     31.39067341	   -103.52010222	    834.59434701	    -38.82687978	     12.64507037	     34.41003191	     25.73823367	     45.00000000	    -45.00000000	  -3328.67391553	  -1906.74235088	    159.12797754	     22.06344934	   2159.38448044	   -202.91235459	     13.25374864	     15.14921032	     -7.44834582	    -45.00000000	    -39.98773274	     45.00000000	    -45.00000000	  -3854.45277996	  -1347.41601978	     17.76713834	   -179.99999979	    372.54323791	    195.99719609	     13.34772939	    -14.07839327
     12.02000000	     32.22737888	     24.19450115	     31.32030604	   -104.48912701	    836.41618595	    -39.14454422	     12.58688779	     34.26673477	     25.49959603	     45.00000000	    -45.00000000	  -3328.61370629	  -1906.56858636	    159.03957052	     21.93373044	   2159.31476978	   -203.62669401	     13.19705798	     15.16384533	     -6.98567200	    -45.00000000	    -40.22866117	     45.00000000	    -45.00000000	  -3854.25485024	  -1347.39329489	     17.88158314	   -179.99999979	    372.54774182	    195.58662254	     13.36224946	    -14.07342950
